PathFileType	4	(X/Y/Z)	/Users/itak/Documents/Research/Walk-IL/dataset/trc/00440_00167.trc
DataRate	CameraRate	NumFrames	NumMarkers	Units	OrigDataRate	OrigDataStartFrame	OrigNumFrames
100.000000	100.000000	4	53	mm	100.000000	428	490
Frame#	Time	RPSI			LPSI			L3			STRN			T10			C7			CLAV			RBAK			LBAK			LSHO			LUPA			LAEL			LAOL			LWTS			LWPS			LFRA			LIFD			LHPS			LHTS			RSHO			RUPA			RAEL			RAOL			RWTS			RWPS			RFRA			RIFD			RHTS			RHPS			RBHD			LFHD			RFHD			LBHD			LHIP			RHIP			RASI			LASI			LKNE			LTHI			LANK			LTIP			LTOE			LMT1			LMT5			LHEE			RKNE			RTHI			RANK			RTIP			RTOE			RMT1			RMT5			RHEE			
		X1	Y1	Z1	X2	Y2	Z2	X3	Y3	Z3	X4	Y4	Z4	X5	Y5	Z5	X6	Y6	Z6	X7	Y7	Z7	X8	Y8	Z8	X9	Y9	Z9	X10	Y10	Z10	X11	Y11	Z11	X12	Y12	Z12	X13	Y13	Z13	X14	Y14	Z14	X15	Y15	Z15	X16	Y16	Z16	X17	Y17	Z17	X18	Y18	Z18	X19	Y19	Z19	X20	Y20	Z20	X21	Y21	Z21	X22	Y22	Z22	X23	Y23	Z23	X24	Y24	Z24	X25	Y25	Z25	X26	Y26	Z26	X27	Y27	Z27	X28	Y28	Z28	X29	Y29	Z29	X30	Y30	Z30	X31	Y31	Z31	X32	Y32	Z32	X33	Y33	Z33	X34	Y34	Z34	X35	Y35	Z35	X36	Y36	Z36	X37	Y37	Z37	X38	Y38	Z38	X39	Y39	Z39	X40	Y40	Z40	X41	Y41	Z41	X42	Y42	Z42	X43	Y43	Z43	X44	Y44	Z44	X45	Y45	Z45	X46	Y46	Z46	X47	Y47	Z47	X48	Y48	Z48	X49	Y49	Z49	X50	Y50	Z50	X51	Y51	Z51	X52	Y52	Z52	X53	Y53	Z53	

429	4.28	1206.460327148438	949.4325561523438	997.5066528320312	1304.636840820312	947.1288452148438	893.6256713867188	1257.592407226562	1048.55224609375	960.2735595703125	1466.10888671875	1245.186279296875	1134.078857421875	1249.084716796875	1171.76416015625	940.8648681640625	1290.3994140625	1439.240478515625	992.7161254882812	1440.2509765625	1359.482666015625	1107.707885742188	1181.378173828125	1321.16064453125	1022.871154785156	1335.244018554688	1393.293823242188	896.4751586914062	1464.01904296875	1417.775634765625	911.7381591796875	1537.415649414062	1307.76171875	835.000732421875	1614.078735351562	1106.572631835938	828.9320678710938	1518.932373046875	1068.855834960938	814.2489013671875	1679.305908203125	935.7639770507812	951.2293701171875	1696.423095703125	910.6966552734375	884.035888671875	1654.525512695312	1028.838012695312	851.9218139648438	1735.229858398438	782.287109375	986.289794921875	1723.404541015625	838.4944458007812	906.1448974609375	1720.52001953125	859.9154052734375	973.9078979492188	1237.860229492188	1412.772705078125	1160.671508789062	1175.063110351562	1351.693115234375	1207.436401367188	1149.19482421875	1064.468872070312	1263.144409179688	1131.366577148438	1041.460327148438	1201.921508789062	1293.491577148438	892.0502319335938	1302.792114257812	1212.911743164062	859.3277587890625	1312.518798828125	1157.33740234375	1007.106384277344	1277.7939453125	1324.43017578125	737.4049682617188	1326.61962890625	1319.224609375	798.1334838867188	1331.979614257812	1246.104736328125	778.655029296875	1328.704467773438	1295.693725585938	1635.887084960938	1104.990966796875	1500.771606445312	1652.733520507812	1083.817016601562	1411.291625976562	1654.474365234375	1178.2666015625	1405.308837890625	1638.076293945312	965.8107299804688	1484.968383789062	843.8694458007812	908.3992919921875	1201.670166015625	849.97412109375	1183.62353515625	1317.3486328125	896.49365234375	1206.560668945312	1499.719116210938	889.5112915039062	1028.942504882812	1508.222412109375	427.0166625976562	1007.016967773438	1523.994140625	585.1654663085938	983.4893188476562	1424.988159179688	23.90721702575684	955.3067016601562	1498.235229492188	267.7741088867188	995.4559326171875	1524.135864257812	29.32293701171875	1169.850341796875	1453.990356445312	36.36000061035156	1133.19873046875	1537.187622070312	28.4869270324707	1053.751586914062	1353.019409179688	29.20406341552734	948.2100219726562	1277.158325195312	457.7437133789062	1223.7470703125	1225.398071289062	715.9915771484375	1216.782470703125	1260.736938476562	31.59713172912598	1222.538940429688	1270.756591796875	315.0396728515625	1242.16552734375	1460.686889648438	35.6145133972168	1313.098266601562	1430.326538085938	40.3801383972168	1246.29638671875	1352.859741210938	34.96384048461914	1319.955810546875	1235.171875	22.97196006774902	1148.636474609375	
430	4.29	1208.230834960938	948.9889526367188	1001.020751953125	1305.970336914062	947.0603637695312	896.7178344726562	1258.734375	1047.922607421875	963.70361328125	1467.704345703125	1245.12841796875	1135.915161132812	1249.646606445312	1171.198120117188	944.1965942382812	1290.79150390625	1438.85009765625	995.3682250976562	1441.519775390625	1359.316528320312	1109.481323242188	1182.167846679688	1320.606323242188	1026.322143554688	1335.140502929688	1392.76318359375	898.86181640625	1464.054931640625	1417.25537109375	913.198486328125	1536.823120117188	1306.896850585938	836.2437744140625	1613.159057617188	1105.389404296875	830.2407836914062	1517.696533203125	1067.951049804688	815.9910888671875	1677.84326171875	933.853271484375	951.9306030273438	1694.792114257812	908.97265625	884.6357421875	1653.323486328125	1027.40673828125	852.9313354492188	1732.89404296875	779.9461669921875	986.4238891601562	1721.374389648438	836.5018310546875	906.4811401367188	1718.60546875	857.6832885742188	974.3170776367188	1239.319213867188	1412.487915039062	1163.635131835938	1177.039184570312	1351.349975585938	1210.933715820312	1152.23681640625	1064.0322265625	1267.157348632812	1133.934814453125	1040.929321289062	1206.1416015625	1297.161865234375	891.8277587890625	1305.521606445312	1216.761352539062	859.0581665039062	1316.087646484375	1160.5703125	1006.619567871094	1281.735107421875	1328.689086914062	737.3760986328125	1329.06591796875	1323.49658203125	798.1599731445312	1334.59521484375	1250.345825195312	778.5753173828125	1332.013061523438	1296.892333984375	1635.774780273438	1107.331787109375	1501.952270507812	1652.341430664062	1085.637329101562	1412.714965820312	1654.109130859375	1180.26025390625	1406.127319335938	1637.915283203125	967.945068359375	1486.565307617188	844.0775756835938	910.6815185546875	1203.822143554688	849.1101684570312	1186.739624023438	1320.004028320312	895.6800537109375	1209.614379882812	1501.73876953125	889.4708251953125	1031.18115234375	1509.04443359375	426.7607116699219	1008.134460449219	1525.188232421875	584.8510131835938	984.831298828125	1424.85791015625	23.9647102355957	955.3729858398438	1498.648803710938	267.5943603515625	996.0320434570312	1524.212036132812	29.36901473999023	1169.839965820312	1453.992797851562	36.34091186523438	1133.223876953125	1537.134887695312	28.50461769104004	1053.736572265625	1352.939086914062	29.15382194519043	948.3436279296875	1277.796264648438	456.6322937011719	1224.12060546875	1228.5849609375	714.8842163085938	1220.51708984375	1260.639038085938	31.5402717590332	1221.996459960938	1271.090698242188	313.99169921875	1241.864868164062	1460.7216796875	34.67481994628906	1312.849731445312	1430.319946289062	39.69637680053711	1246.034301757812	1352.550415039062	34.61661148071289	1319.720947265625	1235.301635742188	22.60303115844727	1147.934204101562	
431	4.3	1209.972778320312	948.5911254882812	1004.418151855469	1307.2939453125	947.0048828125	899.7321166992188	1259.844116210938	1047.330932617188	967.0740966796875	1469.187133789062	1245.106567382812	1137.738647460938	1250.161254882812	1170.701171875	947.5165405273438	1291.08056640625	1438.530151367188	998.0317993164062	1442.6904296875	1359.193359375	1111.23681640625	1182.855834960938	1320.072265625	1029.786987304688	1334.924682617188	1392.2998046875	901.259521484375	1463.976196289062	1416.77783203125	914.637939453125	1536.031372070312	1306.037841796875	837.4285278320312	1611.97802734375	1104.192260742188	831.4598999023438	1516.18408203125	1067.080078125	817.6867065429688	1676.116577148438	931.8649291992188	952.4295043945312	1692.847900390625	907.1962280273438	885.0101928710938	1651.841918945312	1025.9423828125	853.7960205078125	1730.266357421875	777.5023803710938	986.2494506835938	1719.025390625	834.451171875	906.542724609375	1716.424194335938	855.359375	974.4649047851562	1240.706787109375	1412.223754882812	1166.615966796875	1178.948120117188	1351.029052734375	1214.438110351562	1155.208862304688	1063.61962890625	1271.17138671875	1136.42041015625	1040.4482421875	1210.353271484375	1300.582397460938	891.5204467773438	1308.223022460938	1220.331909179688	858.7359619140625	1319.581665039062	1163.682495117188	1006.173400878906	1285.668212890625	1332.556884765625	737.2606201171875	1331.476806640625	1327.406127929688	798.04052734375	1337.137084960938	1254.228515625	778.406005859375	1335.265625	1297.998901367188	1635.730834960938	1109.67431640625	1503.041381835938	1652.001342773438	1087.431396484375	1414.058227539062	1653.806884765625	1182.234008789062	1406.837768554688	1637.803100585938	970.0771484375	1488.173583984375	844.2854614257812	912.951171875	1205.995361328125	848.3076782226562	1189.803955078125	1322.554321289062	894.9315185546875	1212.625122070312	1503.696655273438	889.455810546875	1033.417358398438	1509.807739257812	426.5293273925781	1009.226257324219	1526.31787109375	584.54345703125	986.1879272460938	1424.73291015625	24.02522468566895	955.4329223632812	1498.99755859375	267.4283752441406	996.5831909179688	1524.269897460938	29.41888618469238	1169.815551757812	1453.99267578125	36.32487869262695	1133.244018554688	1537.076293945312	28.52457618713379	1053.723388671875	1352.864501953125	29.0939826965332	948.4620361328125	1278.301147460938	455.6752014160156	1224.517456054688	1231.666748046875	713.8419189453125	1224.208740234375	1260.459716796875	31.5401439666748	1221.525024414062	1271.340698242188	313.1334228515625	1241.709716796875	1460.698486328125	34.16909408569336	1312.656860351562	1430.23095703125	39.26476669311523	1245.821655273438	1352.151489257812	34.44732284545898	1319.513549804688	1235.341918945312	22.36281394958496	1147.305541992188	
432	4.31	1211.693969726562	948.28564453125	1007.682800292969	1308.619750976562	946.9620971679688	902.6488037109375	1260.938598632812	1046.81298828125	970.368896484375	1470.564697265625	1245.144897460938	1139.547119140625	1250.640014648438	1170.294067382812	950.8071899414062	1291.290893554688	1438.3037109375	1000.692199707031	1443.766235351562	1359.135620117188	1112.968017578125	1183.4599609375	1319.587036132812	1033.249145507812	1334.615478515625	1391.932250976562	903.669677734375	1463.807006835938	1416.36865234375	916.0601806640625	1535.061157226562	1305.213745117188	838.5624389648438	1610.538940429688	1103.006713867188	832.596923828125	1514.404418945312	1066.284790039062	819.35400390625	1674.134765625	929.8199462890625	952.7197875976562	1690.580932617188	905.3865356445312	885.1503295898438	1650.081420898438	1024.468139648438	854.5166625976562	1727.358520507812	774.9764404296875	985.7471313476562	1716.352661132812	832.3632202148438	906.3134765625	1713.991088867188	852.9651489257812	974.335205078125	1242.038330078125	1412.009033203125	1169.611572265625	1180.779052734375	1350.74609375	1217.927734375	1158.121337890625	1063.259033203125	1275.174560546875	1138.836547851562	1040.048217773438	1214.539306640625	1303.752319335938	891.1483154296875	1310.901733398438	1223.6142578125	858.3807373046875	1322.993041992188	1166.677124023438	1005.79248046875	1289.576293945312	1335.981567382812	736.995849609375	1333.813720703125	1330.9169921875	797.7650146484375	1339.580444335938	1257.729248046875	778.135498046875	1338.436157226562	1299.020751953125	1635.76904296875	1112.0146484375	1504.043823242188	1651.729614257812	1089.206787109375	1415.325561523438	1653.583618164062	1184.197875976562	1407.45068359375	1637.758178710938	972.2061157226562	1489.782836914062	844.48876953125	915.1986083984375	1208.251220703125	847.6344604492188	1192.787109375	1324.98779296875	894.3030395507812	1215.577880859375	1505.599609375	889.474853515625	1035.643798828125	1510.51318359375	426.3267517089844	1010.286743164062	1527.387329101562	584.2498168945312	987.5572509765625	1424.618041992188	24.08782196044922	955.4849853515625	1499.284912109375	267.2723999023438	997.111572265625	1524.313720703125	29.46860122680664	1169.778442382812	1453.991577148438	36.31375122070312	1133.2587890625	1537.014892578125	28.5436954498291	1053.712036132812	1352.796142578125	29.02987098693848	948.5661010742188	1278.704223632812	454.9117126464844	1224.987426757812	1234.631713867188	712.9196166992188	1227.84228515625	1260.274169921875	31.56150817871094	1221.17333984375	1271.563842773438	312.4725341796875	1241.769775390625	1460.680419921875	33.9556999206543	1312.544921875	1430.127807617188	39.04280090332031	1245.703002929688	1351.749389648438	34.39767837524414	1319.40673828125	1235.349731445312	22.24344825744629	1146.822509765625	
